<?xml version="1.0" standalone="no"?>
<!DOCTYPE svg PUBLIC "-//W3C//DTD SVG 20010904//EN"
 "http://www.w3.org/TR/2001/REC-SVG-20010904/DTD/svg10.dtd">
<svg version="1.0" xmlns="http://www.w3.org/2000/svg"
 width="300.000000pt" height="350.000000pt" viewBox="0 0 300.000000 350.000000"
 preserveAspectRatio="xMidYMid meet">
<metadata>
Created by potrace 1.10, written by Peter Selinger 2001-2011
</metadata>
<g transform="translate(0.000000,350.000000) scale(0.100000,-0.100000)"
fill="#000000" stroke="none">
<path d="M1312 3449 c-86 -10 -394 -111 -437 -143 -16 -13 -52 -32 -78 -44
-26 -12 -67 -36 -90 -55 -23 -18 -60 -45 -82 -59 -113 -72 -303 -315 -386
-494 -144 -306 -173 -607 -95 -956 40 -173 60 -231 118 -336 30 -54 37 -77 29
-85 -20 -20 -11 -61 24 -109 37 -51 129 -128 181 -153 18 -8 34 -22 38 -30 3
-8 13 -15 21 -15 12 0 15 -6 10 -19 -10 -33 30 -64 71 -57 29 6 42 1 90 -35
60 -44 303 -164 389 -193 28 -9 82 -22 120 -29 l70 -12 3 -69 c3 -60 0 -70
-18 -83 -23 -16 -26 -36 -6 -52 8 -7 16 -43 21 -94 4 -57 13 -96 28 -122 29
-51 96 -98 142 -99 24 -1 37 -6 41 -19 8 -27 75 -67 110 -67 24 0 39 8 58 31
14 17 26 35 26 40 0 5 15 9 33 9 41 0 87 28 123 76 27 34 29 45 29 120 0 80 1
84 34 117 l33 35 -26 17 c-23 15 -26 24 -26 70 l0 52 63 22 c34 13 85 27 112
32 108 21 158 62 148 123 -5 32 -4 34 68 75 84 47 173 118 221 176 18 22 44
51 57 65 41 44 128 183 184 295 53 105 133 346 156 470 17 86 -2 356 -36 525
-8 41 -16 84 -18 96 -1 11 -14 46 -29 77 -14 31 -23 63 -20 72 4 8 2 15 -4 15
-5 0 -18 20 -29 45 -10 25 -21 45 -25 45 -5 0 -8 6 -8 13 0 7 -11 29 -25 50
-14 20 -23 37 -20 37 2 0 -2 8 -10 18 -7 9 -34 44 -58 77 -81 109 -267 265
-419 353 -108 63 -184 93 -328 131 -213 56 -393 71 -578 50z m421 -29 c330
-58 528 -156 773 -386 94 -87 118 -116 200 -244 56 -87 70 -82 -249 -76 -154
3 -277 3 -274 0 6 -6 33 -12 62 -13 11 -1 27 -6 35 -11 13 -9 13 -11 0 -20 -8
-5 -10 -10 -5 -10 6 0 15 4 20 9 6 5 31 6 60 1 75 -12 138 -18 258 -26 61 -3
120 -12 135 -20 15 -8 32 -14 37 -14 6 0 20 -22 31 -49 20 -46 21 -50 4 -54
-13 -3 -21 7 -34 50 l-18 55 -56 -6 c-130 -13 -297 -18 -282 -7 20 14 5 14
-18 0 -14 -9 -28 -7 -63 9 -25 12 -54 21 -65 20 -10 0 -34 3 -53 7 -25 6 -32
5 -27 -3 4 -7 18 -12 31 -12 13 0 27 -5 30 -10 4 -6 14 -10 23 -9 10 1 26 -1
37 -5 70 -27 98 -35 165 -49 41 -9 110 -21 153 -27 43 -5 87 -14 97 -20 10 -5
27 -10 38 -10 16 0 24 -18 50 -117 41 -158 53 -246 53 -382 -1 -131 -16 -206
-86 -416 -80 -240 -123 -310 -302 -503 -123 -133 -215 -201 -376 -280 l-127
-63 -46 21 c-33 14 -44 24 -40 35 19 46 19 50 3 30 -15 -19 -16 -18 -7 15 13
49 4 102 -27 154 -4 6 0 5 9 -2 14 -11 16 -10 11 7 -3 11 -11 26 -19 32 -8 6
-14 17 -14 23 0 6 5 3 11 -6 14 -25 32 -23 19 2 -9 17 -5 22 32 41 148 74 301
196 401 317 24 30 28 32 42 18 8 -8 37 -18 63 -21 26 -3 59 -8 74 -10 20 -3
26 -1 22 9 -3 8 -20 16 -39 18 -18 2 -31 0 -28 -5 7 -11 -60 2 -67 13 -3 4
-32 15 -65 25 -33 9 -77 25 -99 36 -21 10 -43 16 -49 12 -6 -3 -7 -1 -3 5 8
13 -40 52 -64 52 -17 0 -54 33 -46 41 2 2 -14 17 -37 33 -22 17 -37 24 -33 18
4 -7 3 -12 -3 -12 -5 0 -12 4 -15 9 -4 5 -30 28 -59 52 -36 30 -44 34 -24 13
15 -17 25 -33 22 -36 -3 -3 22 -22 55 -42 75 -46 74 -57 -1 -16 -64 35 -69 36
-62 11 3 -10 28 -32 56 -47 66 -37 71 -39 63 -25 -11 17 3 13 35 -10 16 -11
29 -17 29 -13 0 3 15 -5 33 -18 17 -14 55 -37 82 -51 63 -33 38 -35 -32 -3
-28 13 -54 22 -56 19 -7 -6 -61 22 -76 40 -6 9 -23 14 -36 12 -14 -1 -25 1
-25 6 0 5 -10 13 -21 20 -15 8 -19 8 -15 0 11 -18 -10 -13 -35 9 -22 18 -15
30 7 13 5 -5 4 -2 -1 5 -6 7 -21 14 -34 17 -30 6 -52 25 -45 37 4 6 10 6 17
-1 6 -6 16 -11 22 -11 5 1 -3 12 -20 26 -19 17 -23 24 -11 20 16 -6 17 -4 6 9
-17 21 -70 48 -70 37 0 -5 11 -14 25 -20 16 -7 23 -17 19 -27 -4 -8 -1 -15 6
-15 9 0 8 -6 -4 -18 -15 -18 -15 -20 1 -34 34 -29 150 -88 175 -88 13 0 39
-11 58 -25 36 -27 31 -33 -10 -11 -13 8 -38 12 -56 9 -20 -3 -46 2 -74 16 -29
14 -47 18 -54 11 -7 -7 -5 -10 6 -10 9 0 29 -7 44 -16 29 -16 29 -16 3 -10
-14 3 -28 3 -31 0 -3 -3 9 -31 28 -61 19 -31 34 -63 34 -70 0 -26 -77 -45
-106 -25 -6 4 -14 23 -18 43 -3 20 -22 57 -42 83 -19 25 -28 43 -19 40 31 -12
14 6 -24 26 -22 11 -42 24 -46 30 -12 19 -14 53 -5 70 11 20 -15 64 -32 54 -6
-4 -5 3 2 15 11 22 12 22 37 -11 28 -36 92 -87 133 -107 l25 -12 -25 18 c-14
10 -58 49 -97 87 -47 45 -73 63 -73 53 0 -9 -4 -17 -10 -17 -10 0 -14 21 -11
48 1 6 -3 12 -9 12 -24 0 5 -91 34 -107 18 -10 13 -25 -34 -112 -17 -31 -17
-37 -4 -62 19 -38 18 -45 -6 -24 -11 10 -20 24 -20 32 0 26 -28 13 -41 -19
l-13 -33 -3 33 c-5 36 -22 41 -48 12 -17 -19 -35 -19 -35 0 0 5 25 25 55 45
85 54 102 90 78 169 -3 12 -1 16 6 12 7 -5 8 -1 4 10 -5 15 -7 14 -16 -2 -5
-11 -11 -21 -13 -23 -8 -9 -91 50 -104 73 -7 14 -17 26 -22 26 -13 0 7 -32 39
-62 30 -29 79 -51 93 -43 5 3 8 -9 8 -27 -1 -18 -3 -27 -5 -20 -3 6 -11 12
-19 12 -18 0 -123 95 -187 169 -58 67 -86 120 -142 264 -23 59 -45 104 -50
100 -4 -5 -5 -3 -2 3 4 7 9 48 11 93 l5 81 -33 25 c-18 14 -41 25 -51 25 -14
0 -15 3 -5 15 12 14 15 14 36 0 32 -20 51 -19 64 5 6 12 7 20 1 20 -5 0 -12
-6 -14 -12 -4 -10 -6 -10 -6 0 -1 8 8 16 19 19 11 3 20 9 20 13 0 11 -40 0
-68 -18 -12 -8 -25 -12 -28 -9 -3 2 11 15 31 27 28 17 59 24 126 29 l89 6 33
-40 c67 -80 104 -142 109 -178 2 -20 1 -37 -3 -37 -7 0 -3 -69 5 -77 3 -3 10
5 15 18 5 13 10 19 10 13 1 -6 12 -24 26 -40 20 -22 24 -24 20 -9 -3 11 3 3
14 -17 24 -43 34 -50 55 -42 12 5 13 10 5 26 -6 11 -9 22 -6 24 5 6 47 -63 47
-77 0 -13 22 -7 27 7 2 6 -19 33 -47 61 -37 37 -49 55 -43 68 5 14 3 16 -7 10
-10 -6 -12 -3 -8 12 6 22 -24 78 -35 67 -4 -4 -1 -14 6 -22 6 -8 13 -27 13
-41 1 -14 3 -26 4 -26 1 0 3 -9 5 -19 2 -10 8 -22 14 -25 5 -4 12 -19 15 -35
4 -23 3 -26 -10 -16 -7 7 -14 18 -14 24 0 19 -16 37 -35 40 -11 2 -20 7 -22
13 -2 6 7 8 24 5 25 -5 26 -3 15 11 -7 8 -21 14 -31 12 -12 -2 -23 6 -30 21
-6 14 -7 23 -2 20 13 -9 34 22 27 39 -3 9 -2 13 4 10 6 -4 13 7 16 24 4 17 11
31 16 31 5 0 7 18 4 40 -2 23 0 38 5 34 10 -6 13 9 9 51 -5 46 -4 146 2 188 2
20 1 37 -3 37 -4 0 -14 7 -22 15 -13 13 -16 13 -21 -1 -3 -8 -2 -12 4 -9 6 3
10 4 10 1 0 -12 -25 -62 -35 -68 -6 -5 -4 -8 4 -8 8 0 11 -3 8 -6 -3 -4 -2
-14 3 -24 7 -13 2 -24 -20 -45 -16 -15 -27 -32 -24 -36 9 -16 13 -135 4 -149
-8 -12 -15 -9 -40 18 -17 17 -27 32 -23 32 4 0 -7 9 -25 20 -18 11 -31 24 -28
29 3 5 -6 16 -20 26 -36 24 -203 8 -242 -24 -15 -11 -52 -39 -82 -61 -30 -22
-64 -48 -76 -58 -46 -40 -57 -94 -25 -130 23 -27 34 -28 26 -2 -8 24 37 73 63
68 23 -4 28 -68 8 -107 -9 -16 -16 -40 -16 -53 l1 -23 19 23 c11 13 29 36 41
50 13 17 19 20 15 9 -3 -11 -2 -16 4 -12 6 3 10 13 10 21 0 8 5 14 11 14 5 0
8 -4 5 -9 -3 -5 5 -29 18 -54 13 -25 36 -77 50 -116 32 -89 50 -124 92 -182
19 -26 34 -52 34 -58 0 -6 7 -11 15 -11 8 0 15 -5 15 -11 0 -12 30 -44 41 -44
4 0 11 -3 15 -7 4 -5 -6 -8 -23 -8 -16 0 -51 -11 -77 -25 -26 -14 -49 -25 -51
-25 -11 0 3 44 15 48 8 3 10 0 5 -8 -6 -9 -3 -9 12 -1 11 6 23 7 27 4 3 -3 6
1 6 9 0 13 -7 14 -33 9 l-32 -8 -1 44 c0 23 1 43 2 43 2 0 14 -4 29 -10 15 -6
24 -6 20 -1 -3 5 -22 15 -43 22 -20 7 -46 18 -57 24 -38 24 -235 13 -235 -13
0 -4 7 -32 15 -62 8 -30 15 -79 15 -107 0 -45 4 -55 25 -69 27 -17 91 -14 144
8 14 6 32 10 39 9 18 -3 15 14 -9 35 -14 13 -18 25 -14 44 4 18 3 21 -4 10
-16 -24 -24 12 -16 68 l7 47 19 -24 c13 -15 16 -28 10 -39 -12 -23 -2 -83 16
-104 9 -10 13 -24 10 -32 -4 -9 -2 -18 3 -21 12 -7 28 24 23 44 -3 12 12 24
52 44 70 34 89 34 133 0 20 -16 53 -37 75 -49 l39 -20 -27 -33 c-15 -17 -45
-41 -66 -51 -51 -27 -64 -51 -48 -95 15 -39 33 -48 23 -11 -3 13 -1 27 5 30 7
5 11 -3 11 -21 0 -16 11 -44 24 -62 29 -39 25 -57 -15 -66 -51 -11 -80 10
-131 93 -42 69 -45 78 -30 90 19 15 56 16 83 2 11 -6 19 -7 19 -1 0 22 -77 29
-111 10 -16 -8 -29 -7 -56 6 -41 20 -107 15 -130 -8 -12 -12 -20 -11 -54 6
-39 19 -39 19 -77 -1 -27 -14 -43 -17 -55 -11 -9 5 -36 11 -61 13 -28 2 -56
13 -78 29 -18 14 -45 29 -60 32 -33 8 -59 58 -115 221 -37 109 -37 110 -37
269 1 140 4 172 26 256 14 52 49 142 78 200 44 87 66 117 134 185 94 93 225
193 311 237 190 97 519 105 743 20 51 -20 89 -39 85 -43 -11 -10 -176 -39
-265 -46 -99 -9 -146 -35 -177 -100 -20 -42 -25 -68 -29 -185 -5 -137 0 -189
18 -189 5 0 8 12 5 28 -16 104 -15 121 10 150 16 20 20 29 10 29 -8 0 -12 -5
-9 -11 3 -6 -2 -2 -10 8 -20 25 -20 40 -1 56 13 11 13 15 3 21 -10 7 -10 11 0
21 14 14 16 32 2 23 -13 -8 -13 5 0 25 8 13 10 12 11 -5 1 -11 2 -26 2 -32 -1
-7 3 -13 9 -13 5 0 6 -5 2 -12 -4 -6 -3 -8 4 -4 6 3 9 16 7 28 -3 11 4 31 14
44 l19 24 6 -24 c8 -33 30 -39 74 -20 20 9 93 26 161 40 118 23 157 34 116 34
-14 0 -16 3 -7 12 8 8 15 8 24 1 20 -17 74 -20 70 -5 -1 8 2 11 9 6 7 -4 30
-9 53 -11 37 -3 39 -2 21 12 -11 8 -14 15 -7 15 6 0 12 7 12 17 0 14 -2 14
-20 -2 -11 -10 -20 -14 -20 -9 0 5 -4 2 -10 -6 -5 -8 -12 -11 -16 -7 -4 3 -1
15 7 24 12 16 12 17 -2 6 -9 -7 -19 -10 -22 -6 -4 3 -7 1 -7 -6 0 -7 -5 -9
-12 -5 -7 5 -9 2 -6 -7 4 -10 -2 -15 -18 -17 -13 -1 -24 3 -24 9 0 5 4 8 9 4
5 -3 12 -1 16 5 3 5 1 10 -6 10 -8 0 -7 5 2 18 13 15 12 16 -3 4 -25 -20 -44
-5 -23 18 13 14 30 18 79 17 45 -2 62 1 59 9 -7 18 5 21 115 28 77 5 102 4 97
-5 -5 -7 -1 -9 12 -5 12 4 51 -5 94 -21 40 -15 68 -28 63 -30 -5 -2 -38 8 -74
22 -35 14 -65 23 -67 21 -7 -7 128 -58 141 -53 8 3 27 2 43 -3 24 -7 21 -8
-24 -9 -28 -1 -59 -4 -67 -7 -11 -4 -15 -2 -11 8 4 11 -2 15 -25 15 -30 0 -31
-1 -10 -12 21 -11 21 -12 4 -19 -10 -4 -15 -4 -11 0 12 12 -36 32 -55 22 -9
-4 -24 -8 -34 -8 -15 0 -15 2 -2 22 15 22 47 41 34 19 -5 -7 -1 -9 10 -4 14 5
14 7 2 14 -18 10 -48 5 -80 -12 -13 -7 -27 -14 -33 -15 -5 -1 -19 -6 -30 -10
-34 -13 0 22 35 36 17 7 30 16 30 21 0 5 -20 -4 -45 -19 -26 -15 -43 -32 -40
-39 5 -15 -11 -17 -20 -3 -9 15 -25 12 -25 -5 0 -12 10 -13 48 -9 26 3 54 11
62 18 8 7 22 17 30 21 13 8 13 7 0 -10 -20 -25 -72 -45 -115 -45 -30 0 -34 -2
-23 -14 7 -8 15 -11 18 -6 8 11 128 27 142 18 7 -4 34 -8 61 -8 26 0 47 -4 47
-9 0 -5 8 -7 18 -5 9 2 31 0 47 -6 28 -9 28 -10 -10 -5 -28 3 -34 2 -20 -4 32
-14 135 -35 141 -28 3 3 -14 10 -38 15 -25 6 -33 10 -18 10 33 1 112 -25 85
-28 -20 -1 -20 -1 0 -10 29 -12 37 -12 29 2 -5 8 -2 9 10 5 10 -4 29 -10 43
-13 26 -7 26 -7 7 13 -10 11 -39 48 -64 83 -25 35 -108 122 -186 194 -183 171
-329 261 -499 308 -336 94 -424 103 -635 69 -206 -34 -308 -69 -482 -167 -172
-96 -207 -124 -329 -262 -188 -212 -228 -275 -298 -477 -49 -139 -67 -230 -75
-380 -4 -59 -9 -111 -11 -115 -3 -5 0 -10 5 -12 7 -2 11 -38 11 -88 0 -46 4
-90 10 -96 5 -6 11 -33 14 -60 8 -81 17 -124 25 -124 10 0 43 -107 42 -133 0
-9 3 -15 9 -12 5 4 8 -2 7 -12 0 -10 0 -27 1 -38 2 -17 3 -18 9 -3 5 12 15 -1
37 -48 22 -46 27 -65 18 -68 -14 -6 -73 94 -98 164 -9 25 -22 59 -29 75 -8 17
-17 48 -21 70 -4 22 -15 74 -25 115 -35 144 -45 317 -26 486 16 149 65 313
136 455 96 189 257 391 375 470 28 18 68 47 90 64 22 18 55 37 72 43 18 6 52
24 75 40 57 39 322 129 434 147 110 18 271 12 427 -15z m109 -69 c109 -28 219
-61 245 -75 68 -34 194 -109 242 -144 100 -72 315 -295 352 -364 9 -16 7 -17
-18 -6 -16 6 -77 21 -138 34 -96 20 -104 23 -65 25 25 2 54 4 65 5 11 1 32 2
48 3 40 1 33 14 -20 34 -210 79 -212 80 -318 73 -96 -6 -185 -22 -140 -26 11
-1 15 -4 8 -6 -6 -3 -30 8 -52 24 -90 65 -326 132 -466 132 -118 0 -295 -27
-374 -56 -148 -56 -283 -153 -424 -305 -92 -99 -115 -141 -183 -337 l-54 -157
0 -140 c0 -89 6 -164 15 -205 21 -91 63 -216 91 -272 26 -51 20 -65 -23 -60
-22 3 -56 -23 -65 -49 -5 -11 -8 -12 -19 -2 -36 35 -115 2 -125 -53 -3 -18
-21 -49 -40 -69 l-33 -36 -15 23 c-8 13 -25 44 -37 70 -16 34 -26 44 -32 35
-6 -8 -7 -6 -3 6 3 10 -10 64 -29 121 -50 150 -68 271 -69 471 -1 231 7 285
76 475 60 167 127 269 300 461 108 119 149 151 293 232 137 76 244 122 345
146 273 65 381 64 662 -8z m-57 -330 c110 -31 125 -36 204 -72 61 -27 70 -34
53 -40 -15 -6 -44 2 -97 27 -135 62 -209 77 -390 76 -253 0 -371 -38 -560
-179 -144 -107 -233 -203 -287 -308 -42 -82 -56 -121 -102 -270 -11 -37 -14
-91 -13 -215 l3 -165 40 -115 c23 -63 51 -134 62 -157 18 -35 19 -42 7 -47
-21 -8 -38 23 -79 142 -56 163 -69 244 -63 396 5 124 8 139 54 271 59 169 75
201 150 294 125 158 337 305 504 350 161 44 381 49 514 12z m282 -127 c-3 -3
-12 -4 -19 -1 -8 3 -5 6 6 6 11 1 17 -2 13 -5z m-112 -44 c-38 -38 -71 -56
-45 -25 7 8 9 15 4 15 -5 1 2 7 16 15 14 8 21 15 15 16 -8 1 23 13 45 18 2 1
-13 -17 -35 -39z m-77 6 c-25 -6 -50 -15 -55 -19 -4 -5 6 -5 22 -2 17 4 32 8
35 7 30 0 30 -4 6 -28 -14 -15 -26 -31 -26 -35 0 -5 -4 -9 -8 -9 -5 0 -9 7 -9
15 0 8 4 12 9 9 4 -3 8 2 8 11 0 14 -3 14 -31 0 -31 -17 -65 -13 -54 5 4 6 -1
7 -10 3 -12 -4 -13 -8 -5 -13 19 -12 3 -29 -20 -23 -23 6 -26 -6 -7 -27 10
-12 9 -12 -5 -2 -12 10 -17 10 -20 1 -2 -7 -15 -14 -29 -16 -18 -2 -20 -1 -9
6 8 5 18 7 22 5 4 -3 8 0 8 5 0 6 -10 11 -22 11 -21 0 -21 0 -3 20 10 12 25
18 32 16 7 -3 15 -1 18 3 6 10 -19 21 -43 20 -11 0 -12 -2 -4 -6 6 -2 10 -9 7
-13 -3 -5 -13 -6 -22 -3 -13 5 -15 2 -10 -11 4 -9 3 -15 -2 -11 -5 3 -13 1
-16 -5 -4 -6 -3 -9 2 -8 4 2 9 -1 11 -7 1 -5 -3 -10 -10 -10 -7 0 -15 11 -18
25 l-6 24 -16 -22 c-11 -17 -17 -20 -21 -10 -3 7 -6 2 -6 -12 -1 -19 -3 -22
-10 -11 -11 18 5 55 20 46 5 -4 8 -1 7 5 -2 7 12 18 30 24 18 6 30 14 27 17
-3 4 18 7 47 7 37 1 49 -1 38 -8 -13 -8 -12 -10 3 -10 9 0 17 5 17 10 0 6 3 9
8 8 4 0 14 2 22 5 23 9 102 25 125 25 11 0 -1 -5 -27 -12z m91 -27 c-22 -14
-33 -10 -19 6 7 8 17 12 22 9 6 -4 5 -10 -3 -15z m-59 -40 c0 -5 -4 -9 -10 -9
-5 0 -10 7 -10 16 0 8 5 12 10 9 6 -3 10 -10 10 -16z m21 -2 c-10 -9 -11 -8
-5 6 3 10 9 15 12 12 3 -3 0 -11 -7 -18z m-104 -19 c-3 -8 -6 -5 -6 6 -1 11 2
17 5 13 3 -3 4 -12 1 -19z m-30 -1 c-2 -6 -10 -11 -19 -13 -10 -1 -15 3 -12
10 6 15 36 17 31 3z m760 -72 c158 0 162 -1 172 -22 6 -13 7 -23 3 -23 -104 2
-402 39 -417 52 -6 5 9 6 35 1 25 -4 118 -8 207 -8z m228 -45 c14 -23 -26 -8
-41 16 -14 21 -15 27 -4 34 9 6 18 1 26 -16 7 -13 16 -28 19 -34z m-1172 3
c-3 -16 -6 -36 -5 -46 1 -15 -2 -16 -14 -6 -10 8 -11 14 -4 19 6 4 10 11 9 16
-2 10 11 44 17 44 3 0 1 -12 -3 -27z m1152 -70 c17 -42 23 -73 15 -78 -5 -3
-10 -1 -12 4 -1 5 -48 14 -103 21 -116 13 -175 27 -175 40 0 6 26 10 58 11 31
0 80 4 107 9 84 13 102 11 110 -7z m-295 -13 c13 -8 13 -10 -2 -10 -9 0 -20 5
-23 10 -8 13 5 13 25 0z m-877 -16 c9 -9 -12 -46 -23 -39 -4 3 -11 -1 -13 -7
-3 -7 -6 -4 -6 8 -1 29 26 54 42 38z m7 -54 c-6 -11 -9 -20 -6 -20 3 0 -1 -20
-8 -45 -8 -25 -12 -45 -10 -45 3 0 -3 -14 -11 -31 -17 -32 -34 -34 -19 -2 4
10 8 41 9 70 0 36 6 57 19 72 24 27 40 27 26 1z m1249 -32 c46 -130 76 -550
48 -663 -103 -424 -274 -721 -517 -902 -61 -45 -285 -173 -304 -173 -7 0 -17
-5 -23 -11 -8 -8 -17 -8 -30 -1 -16 10 -15 12 12 22 140 53 307 161 410 265
222 225 277 312 365 576 71 215 83 273 83 419 0 138 -19 268 -59 398 -14 45
-22 87 -19 92 11 18 23 10 34 -22z m-1669 -48 c0 -5 -5 -10 -11 -10 -5 0 -7 5
-4 10 3 6 8 10 11 10 2 0 4 -4 4 -10z m-3 -128 c2 -66 0 -72 -18 -72 -11 0
-34 -15 -50 -32 l-30 -33 17 40 c9 22 25 57 35 77 27 53 25 58 -27 58 -39 0
-51 -5 -80 -34 -19 -19 -34 -42 -34 -52 -1 -18 -1 -18 -11 -1 -19 33 0 73 54
115 l51 40 45 -17 46 -17 2 -72z m13 -461 c0 -6 -5 -13 -12 -17 -16 -10 -158
-12 -152 -2 14 21 164 39 164 19z m70 -24 c0 -5 7 -7 15 -3 12 4 13 2 6 -13
-6 -10 -7 -21 -4 -25 3 -3 1 -6 -5 -6 -6 0 -19 11 -28 25 -9 14 -23 25 -30 25
-14 0 -19 12 -8 23 8 8 54 -14 54 -26z m-73 -58 c2 -41 9 -71 23 -93 18 -31
19 -35 4 -47 -23 -19 -137 -25 -151 -8 -6 8 -13 46 -15 84 -3 39 -8 77 -12 86
-6 13 2 15 46 13 31 -2 64 3 78 10 14 8 25 14 25 15 1 1 1 -26 2 -60z m90 -38
c-3 -14 -1 -34 4 -43 8 -15 6 -18 -12 -18 -17 0 -19 3 -10 14 9 11 9 15 -1 19
-10 4 -10 8 2 16 10 7 11 11 3 11 -7 0 -13 9 -13 20 0 14 5 18 16 13 11 -4 14
-14 11 -32z m769 -127 c-3 -8 1 -14 9 -14 8 0 19 -10 26 -22 11 -21 11 -21
-20 2 -18 12 -30 25 -26 28 3 3 -5 17 -17 30 l-23 25 28 -18 c16 -10 26 -24
23 -31z m-205 19 c13 -16 12 -17 -3 -4 -10 7 -18 15 -18 17 0 8 8 3 21 -13z
m154 -19 c43 -28 19 -28 -30 0 -25 15 -45 29 -45 31 0 7 47 -13 75 -31z
m-1228 -45 c15 -5 43 -25 62 -42 34 -32 131 -172 131 -188 0 -19 -24 -7 -59
30 -38 41 -104 81 -134 81 -18 0 -71 -24 -95 -43 -10 -8 -10 -12 -1 -17 6 -4
8 -13 4 -20 -5 -8 -12 -7 -26 6 -18 16 -17 18 31 57 28 22 48 42 45 45 -2 2
-26 -13 -52 -35 -54 -45 -79 -61 -70 -46 8 13 -30 48 -72 66 -34 14 -34 15
-12 27 17 8 26 9 34 1 15 -15 27 -14 27 3 0 8 9 24 19 37 17 21 22 22 40 12
26 -16 31 -16 31 1 0 8 12 19 28 24 36 14 36 14 69 1z m928 -15 c26 -22 27
-25 8 -19 -19 5 -71 -11 -61 -20 1 -1 24 0 50 4 26 4 45 5 43 1 -2 -4 7 -18
21 -31 58 -54 71 -118 28 -138 -45 -20 -97 12 -111 68 -3 14 -14 43 -25 64
-20 41 -17 97 5 97 7 -1 26 -12 42 -26z m465 -26 c0 -14 -19 1 -31 25 -12 22
-12 22 10 3 11 -11 21 -23 21 -28z m-868 -29 c15 -11 44 -47 64 -81 35 -58 36
-62 19 -74 -23 -17 -38 -17 -88 -3 -30 8 -49 25 -94 85 -30 41 -54 76 -52 79
29 28 106 25 151 -6z m-329 -6 c23 -12 115 -117 125 -143 2 -5 -7 -14 -19 -20
-39 -21 -87 13 -152 106 l-56 83 37 -6 c20 -3 50 -12 65 -20z m152 7 c17 -14
125 -156 125 -164 0 -3 -15 -8 -34 -11 -49 -10 -85 13 -156 97 -56 67 -60 74
-43 86 21 16 86 10 108 -8z m-609 -5 c-8 -8 -21 -15 -30 -15 -23 0 -28 -18 -7
-25 11 -3 35 -25 53 -47 l32 -41 -24 -16 c-56 -36 -104 -77 -108 -91 -3 -8 11
-1 29 16 19 17 54 45 78 62 42 30 46 31 63 15 10 -9 21 -13 25 -10 9 9 -29 38
-43 33 -7 -3 -10 6 -8 20 2 23 -30 53 -43 40 -7 -7 -33 13 -33 25 0 17 60 -14
93 -49 19 -20 45 -45 58 -54 20 -15 22 -19 9 -28 -8 -5 -22 -7 -30 -4 -8 4
-20 7 -27 7 -7 0 -9 5 -6 10 17 27 -64 -32 -129 -95 -34 -33 -37 -40 -28 -64
6 -14 30 -49 55 -77 25 -29 45 -55 45 -60 0 -15 -81 37 -140 91 -60 53 -100
108 -100 134 0 23 39 58 65 58 17 0 25 6 25 17 0 19 28 53 45 53 6 0 11 16 11
36 0 40 30 74 66 74 17 0 18 -2 4 -15z m1041 -67 c17 -20 43 -24 43 -8 0 6 -7
10 -15 10 -18 0 -18 15 -2 54 l12 29 20 -37 c11 -20 25 -36 33 -36 7 0 12 -6
10 -12 -1 -7 6 -23 17 -36 36 -41 22 -60 -43 -61 -44 -1 -66 12 -93 55 -31 51
-39 96 -20 111 14 10 16 7 19 -20 2 -18 11 -40 19 -49z m525 40 c21 -24 42
-84 34 -97 -13 -20 -61 -29 -95 -17 -26 8 -43 26 -72 73 -36 60 -36 62 -16 66
45 9 132 -5 149 -25z m53 23 c-4 -8 17 -20 45 -26 38 -8 77 -18 83 -22 4 -2
-6 -21 -22 -42 -24 -30 -37 -38 -62 -37 -18 1 -35 8 -40 16 -4 8 -16 34 -27
58 l-20 43 21 9 c29 11 29 11 22 1z m138 -7 c10 -4 16 -11 14 -17 -4 -14 -29
-22 -25 -9 2 6 -6 18 -17 27 -11 9 -13 14 -5 11 8 -3 23 -9 33 -12z m54 -30
c5 -14 -75 -104 -149 -169 -84 -74 -265 -181 -291 -172 -6 2 8 14 31 28 133
77 181 109 226 151 28 27 43 45 34 42 -9 -3 -19 -11 -21 -19 -3 -7 -44 -38
-91 -70 -61 -40 -90 -54 -99 -47 -20 16 -80 21 -124 9 -35 -9 -43 -15 -43 -34
l0 -23 -161 0 c-157 0 -162 1 -191 25 -16 14 -36 25 -43 25 -32 0 -65 -21 -71
-45 -5 -21 -10 -24 -33 -18 -47 11 -94 34 -182 85 -68 40 -85 55 -82 69 3 11
13 19 22 19 9 0 26 7 38 15 13 9 24 11 28 6 11 -18 93 -24 118 -9 17 11 30 12
56 4 22 -6 46 -6 71 1 29 7 44 6 62 -3 32 -18 88 -17 110 2 14 14 21 14 33 4
10 -8 32 -10 67 -6 29 4 70 7 90 7 21 -1 49 4 62 8 15 6 36 5 61 -4 38 -12 88
-6 107 13 5 5 27 3 51 -5 36 -13 46 -12 82 1 31 12 48 14 75 6 34 -10 36 -9
72 32 21 24 38 46 38 51 0 4 7 7 15 7 9 0 12 6 8 16 -4 11 -2 15 7 12 8 -2 15
-9 17 -14z m-1772 -32 c9 -6 17 -42 10 -42 -1 0 -10 11 -19 25 -16 24 -12 32
9 17z m342 -62 c36 -33 60 -47 78 -46 14 0 25 5 25 11 0 5 8 2 17 -8 13 -13
15 -20 5 -29 -9 -9 -12 -9 -12 3 0 8 -9 15 -20 15 -16 0 -17 -3 -7 -13 29 -29
235 -143 288 -160 47 -14 59 -22 58 -38 0 -11 -3 -14 -6 -7 -2 6 -14 12 -26
12 -33 1 -301 148 -382 210 -61 47 -115 99 -115 112 0 15 42 -12 97 -62z m-60
3 c73 -71 239 -176 421 -267 l64 -32 0 -173 c-1 -95 -2 -175 -4 -177 -7 -6
-132 18 -142 27 -6 5 -18 9 -28 9 -17 0 -29 5 -153 58 -73 32 -253 138 -278
164 -10 10 -35 29 -55 42 -56 35 -159 120 -183 150 l-21 27 37 44 c20 25 43
45 51 45 8 0 14 5 14 10 0 21 18 9 25 -17 10 -42 23 -53 49 -43 15 5 37 4 62
-5 22 -7 42 -11 46 -9 3 2 6 33 7 68 0 35 2 70 3 77 2 7 -10 16 -27 20 -28 6
-29 7 -7 14 12 4 22 11 22 16 0 25 44 3 97 -48z m-123 -5 c-5 -9 -2 -9 9 1 16
12 17 8 15 -59 -2 -71 -3 -71 -28 -65 -14 4 -40 7 -57 7 -22 0 -33 4 -33 14 0
8 -6 14 -14 14 -18 0 -29 42 -13 52 6 4 18 1 27 -6 8 -7 30 -13 48 -13 18 0
29 3 25 6 -11 8 -10 45 2 53 16 12 27 9 19 -4z m1241 -169 c10 -16 -26 -38
-60 -38 -29 1 -29 1 -5 9 l25 8 -26 1 c-19 1 -28 -5 -32 -21 -3 -12 -3 -26 0
-31 3 -5 7 -30 8 -55 8 -121 15 -194 19 -200 2 -4 7 -57 10 -117 4 -61 9 -138
12 -173 6 -62 6 -62 -20 -62 -30 0 -44 23 -27 43 7 10 7 17 0 24 -6 6 -13 49
-15 95 -2 45 -11 162 -20 258 -20 219 -18 252 16 261 40 11 108 10 115 -2z
m-521 -18 c17 -19 17 -20 -6 -23 -19 -2 -24 -11 -31 -55 -5 -29 -13 -53 -18
-53 -5 0 -8 -21 -7 -47 l1 -48 7 45 c6 39 7 34 8 -37 2 -57 -2 -83 -10 -86 -9
-4 -9 -8 -3 -14 15 -12 13 -226 -3 -245 -10 -13 -9 -18 3 -28 17 -14 21 -35 4
-24 -7 4 -9 0 -5 -14 4 -11 9 -30 11 -41 2 -12 7 -26 10 -32 11 -17 35 10 31
35 -7 33 -8 33 -16 1 -7 -29 -8 -29 -9 9 -1 38 -1 39 19 21 11 -10 17 -22 14
-26 -3 -5 2 -9 10 -9 28 0 28 -21 1 -50 -33 -34 -42 -93 -25 -154 17 -61 51
-91 100 -90 32 1 41 -3 46 -20 10 -31 35 -56 57 -56 28 0 57 29 57 57 0 20 5
23 37 23 30 0 43 7 75 42 26 28 38 51 38 70 0 37 -23 91 -49 117 -16 16 -19
26 -13 38 9 14 11 14 27 -5 18 -20 18 -20 34 -1 21 25 80 35 104 17 17 -13 17
-15 -8 -42 -38 -41 -46 -69 -36 -123 11 -55 1 -86 -37 -126 -39 -41 -78 -59
-113 -52 -22 5 -29 3 -29 -8 0 -25 -50 -77 -73 -77 -31 0 -85 36 -99 65 -9 20
-19 25 -45 25 -94 0 -163 87 -163 207 0 42 -6 79 -16 98 -14 27 -14 30 3 43
10 7 29 10 41 7 15 -4 21 -2 17 5 -3 5 -14 10 -23 10 -16 0 -17 23 -14 312 2
172 8 320 13 330 5 9 19 19 31 21 13 2 26 5 29 6 3 0 14 -8 23 -18z m369 -120
c7 -104 25 -338 31 -403 5 -43 3 -48 -14 -48 -11 0 -20 6 -20 13 0 8 -4 7 -10
-3 -8 -12 -10 -10 -11 10 -2 24 -2 24 -6 3 -3 -16 -11 -23 -29 -23 -13 0 -23
3 -23 8 4 27 -2 41 -17 35 -13 -5 -15 -1 -9 18 5 18 4 21 -4 9 -9 -13 -11 -12
-12 5 -1 11 -1 24 0 28 1 5 -3 6 -9 2 -6 -3 -7 -12 -3 -18 4 -6 -6 -2 -21 11
-16 12 -35 22 -43 22 -8 0 -11 5 -7 11 4 7 1 10 -7 7 -8 -3 -15 -10 -15 -16
-1 -7 -2 -16 -3 -22 0 -5 -5 -10 -11 -10 -5 0 -6 8 -3 17 6 15 5 16 -9 3 -9
-8 -13 -19 -8 -25 4 -5 -2 -30 -14 -55 -18 -41 -21 -43 -24 -20 -2 14 -8 30
-14 35 -6 7 -7 0 -3 -20 7 -29 7 -29 -8 -9 -12 16 -24 20 -47 16 l-32 -5 5
229 c5 239 8 270 36 277 9 3 93 5 187 5 l171 0 6 -87z m-1183 -21 c19 -13 51
-37 71 -54 19 -17 44 -37 55 -44 10 -7 13 -10 5 -6 -9 5 -12 3 -7 -5 4 -6 13
-10 19 -9 13 2 77 -29 77 -38 0 -2 -9 0 -19 6 -11 5 -23 10 -28 10 -4 -1 3 -7
17 -14 14 -8 28 -12 32 -10 4 3 58 -22 120 -55 100 -52 216 -93 331 -116 30
-6 37 -25 9 -25 -42 0 -194 45 -287 85 -244 106 -434 239 -487 340 -7 14 0 10
23 -11 19 -17 50 -41 69 -54z m-55 -10 c3 -5 1 -10 -4 -10 -6 0 -11 5 -11 10
0 6 2 10 4 10 3 0 8 -4 11 -10z m85 -72 c0 -4 -6 -8 -14 -8 -28 0 -46 12 -46
32 0 19 1 19 30 1 17 -9 30 -21 30 -25z m1575 -195 c-13 -55 -163 -84 -260
-52 -32 12 -40 19 -42 42 -2 31 -7 30 78 2 39 -13 40 -14 10 -10 -50 7 -32 -4
32 -21 40 -10 61 -11 78 -4 23 10 23 10 -3 5 -14 -3 -36 -1 -49 3 -17 7 -12 9
24 9 32 0 54 6 69 19 20 18 21 18 15 1 -4 -11 -3 -16 4 -12 5 4 7 14 4 24 -3
10 4 27 17 41 l23 25 3 -24 c2 -13 1 -34 -3 -48z m-302 -63 c3 -11 2 -22 -3
-25 -4 -3 -10 6 -12 20 -6 30 7 34 15 5z m-248 -47 c25 -32 45 -64 45 -72 0
-9 4 -10 13 -3 20 16 75 24 95 13 17 -9 12 -17 -49 -80 -62 -64 -68 -74 -74
-125 -7 -57 4 -111 23 -111 6 0 17 -6 24 -13 16 -16 -4 -32 -42 -32 -23 0 -28
7 -44 63 -15 52 -21 111 -35 340 -1 9 -4 17 -9 17 -4 0 -7 -57 -8 -127 0 -101
-5 -144 -22 -202 -12 -41 -27 -78 -34 -83 -24 -15 -47 -8 -68 22 -12 16 -18
30 -15 30 4 0 -1 7 -10 16 -9 9 -13 19 -10 23 4 3 15 -5 25 -19 43 -56 77 23
45 105 -18 49 -81 136 -119 166 -21 17 -24 24 -15 35 16 19 28 18 85 -11 58
-30 54 -29 54 -9 0 20 37 84 58 102 27 21 40 14 87 -45z m322 40 c18 -3 30 -9
27 -14 -2 -4 -12 -5 -21 -2 -11 4 -14 3 -9 -5 5 -9 0 -9 -20 -2 -24 10 -26 9
-13 -6 12 -14 11 -16 -6 -13 -14 3 -20 13 -20 32 -1 21 3 26 15 21 8 -3 30 -8
47 -11z m-153 -160 c4 -9 -1 -23 -13 -34 -17 -16 -21 -16 -32 -3 -9 11 -8 18
6 34 22 24 31 25 39 3z m-351 -75 c4 -13 -29 -88 -39 -88 -3 0 -3 4 1 9 3 5 0
13 -6 17 -7 4 -9 3 -5 -4 7 -11 -11 -28 -21 -19 -9 10 18 77 35 87 23 13 30
12 35 -2z m295 -65 c-6 -7 -5 -14 3 -19 8 -5 9 -3 4 6 -5 9 -4 11 4 6 9 -6 9
-11 1 -21 -8 -10 -8 -15 1 -21 8 -5 9 -3 4 6 -5 8 -4 11 3 7 16 -11 7 -57 -16
-80 -18 -17 -23 -18 -37 -7 -14 12 -14 15 0 30 22 24 19 82 -6 114 -29 37 -15
49 20 17 20 -18 26 -30 19 -38z m-278 -33 c0 -16 -4 -30 -10 -30 -11 0 -14 43
-3 53 11 12 13 8 13 -23z m-40 -11 c0 -5 -7 -9 -16 -9 -20 0 -10 -33 24 -77
23 -31 21 -42 -4 -25 -33 23 -58 104 -38 125 8 8 34 -3 34 -14z m173 -31 c36
-113 30 -158 -18 -158 -19 0 -28 9 -40 36 -13 32 -13 38 0 57 8 12 18 43 21
69 4 26 10 48 13 48 4 0 14 -24 24 -52z"/>
<path d="M2295 2910 c-3 -6 1 -7 9 -4 18 7 21 14 7 14 -6 0 -13 -4 -16 -10z"/>
<path d="M2161 2887 c-11 -17 -11 -17 16 -1 15 10 30 19 32 20 2 2 -6 2 -17 1
-11 0 -25 -9 -31 -20z"/>
<path d="M2248 2793 c7 -3 16 -2 19 1 4 3 -2 6 -13 5 -11 0 -14 -3 -6 -6z"/>
<path d="M2308 2793 c7 -3 16 -2 19 1 4 3 -2 6 -13 5 -11 0 -14 -3 -6 -6z"/>
<path d="M2358 2793 c7 -3 16 -2 19 1 4 3 -2 6 -13 5 -11 0 -14 -3 -6 -6z"/>
<path d="M1985 2766 c-23 -18 -13 -21 16 -6 10 6 19 7 19 3 0 -4 -11 -13 -24
-19 -20 -9 -28 -8 -42 5 -17 15 -17 15 -5 -2 8 -9 11 -20 8 -24 -4 -3 -1 -13
6 -21 10 -13 9 -15 -6 -9 -10 4 -20 7 -22 7 -2 0 -1 8 2 19 3 10 1 21 -4 24
-5 3 -8 -6 -7 -21 1 -22 -8 -30 -55 -54 -31 -15 -62 -28 -69 -28 -29 0 -72
-41 -72 -68 0 -20 -3 -23 -9 -13 -6 10 -9 4 -8 -20 1 -47 -34 -200 -44 -193
-5 2 -4 15 0 27 5 12 9 47 9 77 2 81 9 129 21 144 9 11 7 16 -6 22 -47 21 -78
1 -56 -35 7 -11 7 -23 2 -33 -6 -11 -4 -22 7 -33 22 -22 27 -65 8 -72 -13 -5
-13 -8 0 -22 10 -11 12 -21 6 -31 -7 -11 -10 -12 -10 -2 0 7 -4 11 -9 8 -5 -4
-12 0 -14 6 -4 9 -6 10 -6 1 -1 -6 9 -19 21 -27 19 -14 20 -16 5 -16 -14 0
-17 -5 -12 -21 5 -16 4 -19 -5 -14 -9 5 -11 4 -6 -4 10 -15 29 -3 22 15 -3 8
-1 14 3 14 16 0 20 -28 4 -34 -8 -4 -13 -13 -9 -21 7 -20 -4 -19 -21 3 -13 15
-13 15 -3 -5 5 -12 14 -24 19 -28 5 -3 17 -28 26 -55 9 -28 21 -50 26 -50 6 0
7 -6 3 -12 -4 -7 -4 -10 1 -6 10 10 37 -11 29 -23 -3 -5 24 -39 60 -76 36 -36
63 -70 60 -74 -2 -4 20 -26 50 -49 31 -22 60 -49 66 -61 7 -12 18 -18 26 -15
10 4 12 2 8 -6 -4 -6 -3 -8 3 -5 6 4 14 0 17 -9 8 -21 7 -31 -2 -18 -9 13
-142 84 -142 75 0 -9 90 -64 106 -64 8 0 14 -4 14 -8 0 -5 19 -19 41 -31 46
-25 61 -34 101 -61 34 -23 57 -13 32 14 -24 27 -15 24 52 -16 32 -19 63 -35
68 -35 6 0 4 -5 -4 -11 -13 -9 -13 -10 0 -6 8 2 20 -3 26 -11 6 -8 25 -15 41
-16 17 0 29 -5 25 -10 -3 -5 5 -7 16 -4 12 4 20 3 17 -1 -11 -19 194 -89 217
-75 18 12 51 13 64 3 12 -10 44 -2 44 11 0 4 -24 10 -52 14 -68 8 -213 51
-213 62 0 5 12 45 27 89 37 109 50 191 51 310 1 109 -10 215 -22 215 -4 0 -4
-26 1 -57 11 -80 11 -204 -1 -295 -10 -76 -67 -268 -80 -268 -3 0 -12 4 -19 9
-11 7 -8 19 13 62 50 97 68 181 69 324 0 72 -3 154 -7 183 l-8 52 61 0 c58 0
60 1 48 20 -7 11 -24 24 -38 29 l-25 9 25 2 c14 1 41 7 60 14 l35 13 -39 7
c-21 4 -41 5 -44 2 -3 -3 6 -6 19 -6 44 -1 -6 -21 -54 -22 -40 0 -147 27 -147
38 0 2 32 3 70 2 46 -1 66 -5 58 -11 -9 -6 -7 -7 5 -3 10 3 23 6 28 6 6 0 8 4
4 9 -3 6 9 8 29 4 39 -6 180 32 171 47 -3 4 1 11 7 13 7 3 -5 6 -27 7 -22 0
-99 2 -172 4 -193 6 -209 20 -28 26 126 4 152 3 162 -10 6 -8 15 -12 19 -7 4
4 2 7 -4 7 -7 0 -12 5 -12 10 0 7 6 7 19 0 24 -12 31 -13 31 -1 0 17 -54 27
-118 21 -34 -3 -62 -1 -62 4 0 5 -7 3 -15 -4 -21 -18 -275 -2 -315 20 -13 7
-20 7 -20 1 0 -10 61 -31 92 -31 9 0 23 -6 30 -13 7 -8 29 -19 48 -25 39 -13
301 -21 293 -10 -2 5 7 4 20 -1 14 -6 28 -7 33 -3 4 4 4 2 1 -5 -4 -6 -17 -9
-29 -5 -14 3 -19 1 -14 -6 5 -8 1 -10 -10 -5 -12 4 -15 3 -10 -5 4 -7 1 -12
-9 -12 -9 0 -14 4 -11 9 4 5 -3 7 -15 4 -16 -4 -17 -8 -7 -14 10 -7 9 -9 -4
-9 -10 0 -18 3 -18 8 0 4 -57 8 -127 8 -71 1 -137 5 -147 10 -14 5 -17 4 -11
-5 6 -10 -2 -12 -36 -7 l-44 6 40 -13 c22 -7 42 -9 43 -5 2 4 8 8 13 8 6 0 8
-4 5 -9 -3 -5 1 -14 9 -21 8 -7 15 -9 15 -5 0 4 6 3 13 -3 6 -5 42 -19 79 -31
38 -11 80 -27 95 -35 25 -14 26 -15 7 -16 -21 0 -166 34 -200 47 -11 4 -15 3
-11 -4 4 -6 1 -14 -5 -17 -7 -3 -4 -4 8 -1 12 3 27 -1 34 -10 10 -13 9 -15
-10 -15 -35 0 -92 31 -86 47 3 8 1 11 -5 8 -5 -4 -17 -1 -25 6 -8 6 -17 9 -21
5 -3 -3 -13 0 -22 8 -9 7 -39 19 -67 25 -58 14 -98 48 -100 86 -1 27 21 39 71
38 22 0 24 1 7 4 -13 3 -19 9 -16 15 5 7 1 9 -9 5 -10 -3 -17 -4 -17 -1 0 2
11 9 25 14 14 5 25 14 25 20 0 14 -17 13 -23 -2 -3 -8 -6 -6 -6 5 -1 10 6 17
18 17 23 0 37 16 46 51 5 20 1 32 -19 52 -13 14 -28 22 -32 18 -4 -3 -1 5 5
17 18 34 6 38 -23 9 -32 -32 -94 -51 -113 -35 -21 17 -15 38 17 56 16 9 28 22
27 27 -6 16 -31 17 -52 1z m6 -93 c13 -13 4 -47 -10 -38 -5 3 -12 1 -16 -5 -3
-6 4 -10 18 -10 13 0 27 -3 31 -7 4 -4 16 -8 26 -8 11 0 20 -3 20 -7 0 -5 0
-18 -1 -30 l0 -23 -9 23 c-5 12 -12 22 -14 22 -3 0 -3 -7 0 -15 7 -16 3 -18
-20 -9 -8 3 -12 12 -9 20 3 9 -1 14 -13 13 -11 0 -14 -3 -6 -6 6 -2 10 -9 7
-13 -7 -12 52 -43 65 -35 6 3 10 15 10 27 0 18 2 19 17 7 11 -10 14 -10 9 -1
-4 7 -2 12 4 12 7 0 9 -8 4 -22 -8 -29 -24 -49 -33 -43 -4 2 -20 6 -36 9 -15
3 -38 14 -50 26 -30 28 -39 25 -13 -5 12 -14 27 -25 34 -25 8 0 19 -10 25 -22
10 -18 8 -24 -7 -35 -10 -7 -23 -13 -29 -13 -18 0 -55 30 -55 46 0 8 -4 14 -9
14 -5 0 -11 9 -14 21 -6 24 3 55 12 42 3 -5 14 -1 23 8 16 17 15 19 -19 40
-36 22 -36 23 -15 39 22 19 56 20 73 3z m129 -9 c32 -20 30 -49 -5 -58 -33 -8
-55 2 -56 28 -1 16 -2 17 -6 4 -5 -20 -5 -20 -27 -12 -27 10 -18 33 17 43 45
13 46 13 77 -5z m-207 -34 c20 -24 21 -30 4 -30 -8 0 -24 11 -37 25 -22 23
-22 25 -4 25 11 0 27 -9 37 -20z m-14 -47 c1 -16 -31 -25 -70 -18 -32 5 -33 4
-15 -10 11 -8 15 -15 10 -15 -13 0 -52 29 -40 30 5 0 1 9 -8 19 -25 28 -3 35
29 9 l27 -21 -13 21 c-8 12 -18 23 -24 23 -5 1 4 4 20 8 22 5 37 2 57 -13 15
-12 27 -26 27 -33z m271 43 c0 -3 -4 -8 -10 -11 -5 -3 -10 -1 -10 4 0 6 5 11
10 11 6 0 10 -2 10 -4z m-480 -26 c0 -11 -30 -21 -41 -14 -5 3 -9 11 -9 17 0
7 4 6 10 -3 9 -13 14 -7 11 12 0 4 6 5 14 2 8 -4 15 -10 15 -14z m77 -29 c-18
-6 -18 -7 0 -23 10 -9 23 -18 28 -20 9 -3 9 -48 0 -57 -3 -2 -15 3 -29 12 -21
14 -25 15 -30 1 -3 -8 -2 -13 3 -9 13 7 25 -55 13 -67 -15 -15 -45 21 -37 46
4 12 7 29 8 38 1 9 5 15 8 12 4 -2 8 8 9 23 2 70 3 72 24 61 19 -10 19 -12 3
-17z m-97 -25 c0 -8 -4 -18 -10 -21 -5 -3 -10 3 -10 14 0 12 5 21 10 21 6 0
10 -6 10 -14z m231 -6 c6 0 8 -4 5 -9 -3 -5 1 -11 9 -15 8 -3 15 -12 15 -19 0
-8 9 -22 20 -32 22 -20 26 -41 9 -47 -8 -3 -7 -7 2 -15 11 -9 19 -8 34 3 19
15 19 16 2 29 -17 12 -16 13 7 11 13 0 24 -5 23 -11 -1 -5 3 -9 9 -10 6 0 22
-12 35 -28 13 -15 49 -36 79 -46 30 -11 87 -35 125 -54 73 -36 199 -62 162
-33 -12 9 -14 16 -8 21 6 3 11 1 11 -4 0 -6 6 -11 14 -11 19 0 25 -20 36 -127
17 -160 -4 -304 -61 -430 -27 -58 -30 -61 -60 -58 -28 4 -91 35 -193 96 -22
13 -36 18 -32 11 4 -7 2 -12 -5 -12 -8 0 -8 -4 2 -16 7 -9 -12 -1 -42 16 -67
39 -74 46 -50 46 11 0 18 -3 16 -6 -2 -4 12 -13 31 -22 26 -12 34 -12 34 -3 0
11 -48 38 -64 37 -3 -1 -19 12 -37 28 -17 17 -35 27 -40 24 -5 -3 -8 -2 -7 3
3 10 -97 105 -109 103 -4 -1 -9 3 -11 9 -2 7 4 8 15 5 14 -6 16 -4 6 6 -9 10
-6 18 13 39 13 14 24 29 24 33 0 4 14 22 30 40 17 18 30 38 30 44 0 6 9 19 20
29 11 10 20 24 20 30 0 7 7 15 15 19 8 3 20 17 25 31 5 14 14 25 20 25 6 0 15
11 20 25 5 14 20 29 32 34 22 9 22 9 -7 16 -16 4 -37 14 -46 21 -13 12 -16 12
-16 0 0 -8 11 -17 24 -21 14 -3 21 -10 17 -16 -10 -17 -63 -2 -103 29 -20 15
-41 26 -47 24 -13 -3 -15 29 -2 44 8 11 -8 23 -40 30 -23 4 -52 36 -52 56 0
13 -4 17 -12 12 -9 -5 -8 -2 1 10 8 9 21 14 28 11 8 -3 19 -5 24 -5z m-19 -88
c28 -24 64 -80 60 -94 -1 -5 5 -8 14 -8 9 0 12 5 8 13 -4 6 4 2 17 -10 13 -12
44 -29 68 -39 41 -16 42 -18 25 -31 -11 -8 -28 -11 -39 -8 -11 4 -26 7 -33 7
-7 1 -27 19 -43 40 -19 23 -39 38 -52 38 -12 0 -37 14 -56 30 -18 16 -38 27
-43 24 -8 -5 11 -25 60 -65 17 -14 15 -39 -4 -39 -8 0 -13 4 -9 9 3 5 0 13 -6
17 -8 4 -9 3 -5 -4 4 -7 1 -12 -7 -12 -8 0 -17 6 -20 14 -3 8 -16 20 -28 26
-17 9 -20 9 -14 0 7 -12 -8 -9 -54 8 -9 3 -12 -1 -9 -14 3 -13 11 -18 30 -17
15 1 29 -5 32 -12 3 -9 0 -12 -8 -9 -13 5 -16 -30 -3 -42 16 -16 5 -22 -23
-13 -16 6 -30 15 -30 21 0 6 7 7 16 4 8 -3 12 -2 9 4 -13 22 -37 10 -35 -17 3
-43 1 -46 -15 -33 -8 7 -15 9 -15 4 0 -5 -5 -2 -10 8 -11 18 -3 51 11 42 5 -3
9 -10 9 -15 0 -6 -4 -7 -10 -4 -5 3 -10 1 -10 -5 0 -7 6 -10 13 -7 7 2 11 18
10 37 -1 19 2 28 6 21 4 -6 8 9 8 34 0 52 6 63 27 46 8 -7 21 -9 27 -5 8 5 10
2 6 -8 -4 -12 1 -15 19 -14 13 0 24 7 24 14 0 6 -5 11 -11 10 -6 -2 -13 3 -14
10 -2 7 -1 8 2 2 2 -5 9 -7 14 -4 6 3 5 11 -2 20 -10 12 -9 13 6 8 12 -5 16
-4 12 3 -4 6 1 25 10 43 14 29 17 31 26 14 6 -10 23 -29 39 -42z m-102 8 c0
-5 -2 -10 -4 -10 -3 0 -8 5 -11 10 -3 6 -1 10 4 10 6 0 11 -4 11 -10z m687
-76 c-3 -3 -12 -4 -19 -1 -8 3 -5 6 6 6 11 1 17 -2 13 -5z m-720 -40 c-3 -3
-12 -4 -19 -1 -8 3 -5 6 6 6 11 1 17 -2 13 -5z m103 -66 c0 -4 -11 -14 -25
-20 -15 -7 -24 -17 -21 -25 3 -8 -5 -18 -19 -25 -21 -9 -27 -7 -49 18 -13 16
-23 30 -22 31 1 2 17 -3 34 -9 25 -10 34 -10 44 0 9 9 9 15 3 20 -8 5 -12 60
-6 79 2 6 61 -61 61 -69z m102 31 c13 -17 41 -40 63 -49 32 -15 37 -19 22 -25
-11 -5 -31 2 -58 20 -52 34 -61 27 -12 -10 21 -16 40 -30 42 -32 2 -2 2 -6 -2
-9 -7 -8 -97 43 -97 55 0 5 -9 11 -21 14 -18 5 -19 8 -8 29 24 46 41 48 71 7z
m-65 -56 c6 4 20 -4 33 -18 12 -13 35 -29 51 -35 31 -13 39 -30 14 -30 -31 0
-84 29 -100 54 -16 23 -44 39 -30 17 3 -5 -1 -16 -9 -24 -12 -12 -8 -19 33
-51 25 -20 53 -41 61 -47 13 -8 12 -12 -7 -28 -29 -24 -56 -17 -87 20 -26 30
-36 36 -36 19 0 -12 37 -47 73 -70 l28 -17 -26 0 c-17 0 -39 12 -62 34 -19 19
-37 32 -40 29 -8 -8 65 -76 83 -76 8 0 14 -5 14 -10 0 -19 -54 2 -91 35 -29
26 -34 36 -28 53 5 12 13 22 19 22 5 0 9 3 9 8 -4 27 2 44 16 38 15 -5 19 5
15 33 -2 20 42 64 51 50 4 -6 11 -9 16 -6z m-150 -37 c5 -5 1 -7 -9 -3 -13 5
-18 1 -18 -11 0 -20 29 -64 30 -45 0 6 -4 15 -10 18 -12 7 -13 25 -2 25 5 0
16 -6 26 -13 21 -15 12 -47 -14 -47 -17 0 -59 50 -43 50 5 0 0 5 -9 11 -10 5
-18 14 -18 18 0 11 56 8 67 -3z m232 -73 c2 -2 1 -6 -2 -10 -4 -3 -18 0 -32 7
-36 19 -86 66 -79 73 5 4 54 -26 113 -70z m526 -548 c17 -7 23 -14 15 -14 -8
0 -28 6 -45 14 -16 7 -23 14 -15 14 8 0 29 -6 45 -14z m88 -26 c12 -1 25 -1
30 0 4 0 7 -3 7 -9 0 -13 -4 -13 -51 2 -22 6 -39 18 -39 25 0 12 3 12 16 -1 8
-9 25 -17 37 -17z"/>
<path d="M1977 2659 c4 -13 8 -18 11 -10 2 7 -1 18 -6 23 -8 8 -9 4 -5 -13z"/>
<path d="M1925 2660 c-4 -6 1 -7 11 -3 12 4 15 3 10 -5 -4 -7 -1 -12 10 -12
13 0 14 3 4 15 -14 17 -26 19 -35 5z"/>
<path d="M1965 2526 c16 -13 34 -22 38 -19 5 3 -5 14 -22 24 -44 26 -52 24
-16 -5z"/>
<path d="M1760 2520 c6 -11 13 -20 16 -20 2 0 0 9 -6 20 -6 11 -13 20 -16 20
-2 0 0 -9 6 -20z"/>
<path d="M1880 2492 c6 -13 14 -21 18 -18 3 4 -2 14 -12 24 -18 16 -18 16 -6
-6z"/>
<path d="M1830 2449 c-8 -5 -10 -9 -4 -9 6 0 23 -11 38 -25 15 -14 32 -25 39
-25 6 0 2 7 -10 15 -12 9 -28 24 -36 35 -9 13 -17 16 -27 9z"/>
<path d="M1811 2303 c7 -12 15 -20 18 -17 3 2 -3 12 -13 22 -17 16 -18 16 -5
-5z"/>
<path d="M1902 2315 c4 -4 0 -14 -10 -21 -9 -7 -12 -14 -6 -14 6 0 17 6 23 14
9 11 9 16 -1 22 -7 4 -10 4 -6 -1z"/>
<path d="M1830 2166 c0 -35 68 -83 96 -68 13 7 10 10 -15 15 -17 4 -43 19 -56
33 -14 15 -25 24 -25 20z"/>
<path d="M2050 2770 c0 -5 6 -10 14 -10 22 0 29 -19 14 -38 -12 -16 -11 -16 7
-2 24 18 44 42 45 53 0 4 -18 7 -40 7 -22 0 -40 -4 -40 -10z"/>
<path d="M2278 2773 c-9 -2 -19 -11 -22 -19 -5 -12 -1 -14 17 -8 12 4 31 13
42 20 19 14 19 14 0 13 -11 -1 -27 -3 -37 -6z"/>
<path d="M2315 2746 c-20 -16 -20 -16 2 -13 12 2 26 6 29 10 4 4 12 7 18 7 6
0 5 -4 -2 -9 -8 -4 10 -8 43 -8 61 0 77 13 18 14 -21 0 -49 4 -63 7 -16 5 -32
2 -45 -8z"/>
<path d="M1849 2731 c8 -5 11 -16 8 -25 -4 -9 -2 -16 2 -16 12 0 23 29 15 41
-3 5 -13 9 -22 9 -14 0 -14 -2 -3 -9z"/>
<path d="M1793 2719 c9 -6 15 -14 12 -20 -4 -5 -1 -9 5 -9 7 0 10 -7 6 -15 -6
-16 9 -21 18 -6 7 11 -32 61 -47 61 -7 0 -4 -5 6 -11z"/>
<path d="M1743 2697 c6 -36 -7 -43 -23 -12 -7 14 -18 25 -23 25 -6 0 -3 -8 5
-17 22 -26 29 -51 15 -57 -7 -2 -5 -5 4 -5 24 -1 44 52 29 76 -10 16 -11 14
-7 -10z"/>
<path d="M2020 2710 c0 -5 5 -10 11 -10 5 0 7 5 4 10 -3 6 -8 10 -11 10 -2 0
-4 -4 -4 -10z"/>
<path d="M1653 2666 c3 -8 1 -17 -6 -19 -7 -2 0 -4 15 -3 25 1 25 2 11 19 -19
21 -27 22 -20 3z"/>
<path d="M2320 2645 c-8 -9 -8 -15 -2 -15 12 0 26 19 19 26 -2 2 -10 -2 -17
-11z"/>
<path d="M2380 2630 c-8 -5 -10 -10 -5 -10 6 0 17 5 25 10 8 5 11 10 5 10 -5
0 -17 -5 -25 -10z"/>
<path d="M2528 2629 c-10 -5 -18 -14 -18 -19 0 -6 8 -10 18 -9 12 0 13 2 3 6
-10 4 -8 9 10 19 13 7 20 13 14 13 -5 0 -18 -4 -27 -10z"/>
<path d="M2448 2623 c7 -3 16 -2 19 1 4 3 -2 6 -13 5 -11 0 -14 -3 -6 -6z"/>
<path d="M2570 2610 c-13 -8 -13 -10 2 -10 9 0 20 5 23 10 8 13 -5 13 -25 0z"/>
<path d="M2245 2580 l-30 -8 33 -1 c17 0 32 4 32 9 0 6 -1 9 -2 9 -2 -1 -16
-5 -33 -9z"/>
<path d="M2318 2559 c-9 -6 -5 -9 12 -10 23 0 23 -1 5 -9 -20 -9 -20 -9 0 -8
11 0 30 3 43 6 21 6 20 8 -12 18 -19 6 -41 7 -48 3z"/>
<path d="M2185 2550 c-3 -5 1 -10 10 -10 9 0 13 5 10 10 -3 6 -8 10 -10 10 -2
0 -7 -4 -10 -10z"/>
<path d="M2425 2527 c11 -9 34 -16 50 -16 l30 1 -30 8 c-16 4 -39 11 -50 15
-20 8 -20 8 0 -8z"/>
<path d="M2375 2520 c-3 -6 1 -7 9 -4 18 7 21 14 7 14 -6 0 -13 -4 -16 -10z"/>
<path d="M2148 2513 c7 -3 16 -2 19 1 4 3 -2 6 -13 5 -11 0 -14 -3 -6 -6z"/>
<path d="M2070 2469 c0 -5 5 -7 10 -4 6 3 10 8 10 11 0 2 -4 4 -10 4 -5 0 -10
-5 -10 -11z"/>
<path d="M2125 2470 c3 -5 18 -10 33 -9 24 0 25 1 7 9 -28 12 -47 12 -40 0z"/>
<path d="M2208 2448 c5 -5 16 -8 23 -6 8 3 3 7 -10 11 -17 4 -21 3 -13 -5z"/>
<path d="M2115 2415 c14 -26 23 -30 61 -33 25 -1 57 -11 72 -21 15 -11 47 -22
72 -25 42 -5 41 -4 -13 11 -36 9 -54 19 -47 23 13 8 2 11 -85 26 -21 4 -48 16
-58 28 -18 21 -18 21 -2 -9z"/>
<path d="M2130 2434 c0 -2 9 -8 20 -14 11 -6 20 -7 20 -2 0 6 -9 12 -20 15
-11 3 -20 3 -20 1z"/>
<path d="M2200 2420 c0 -12 2 -12 62 -14 59 -2 50 9 -14 18 -29 3 -48 2 -48
-4z"/>
<path d="M1425 2390 c3 -5 8 -10 11 -10 2 0 4 5 4 10 0 6 -5 10 -11 10 -5 0
-7 -4 -4 -10z"/>
<path d="M1470 2341 c0 -6 4 -13 10 -16 6 -3 7 1 4 9 -7 18 -14 21 -14 7z"/>
<path d="M1488 2283 c7 -3 16 -2 19 1 4 3 -2 6 -13 5 -11 0 -14 -3 -6 -6z"/>
<path d="M2606 2158 c-43 -39 -43 -70 -2 -115 19 -21 36 -33 36 -27 0 6 -7 17
-15 24 -8 7 -15 28 -15 47 0 30 5 36 37 50 43 17 121 13 134 -8 17 -27 10 -66
-13 -74 -22 -7 -21 -8 7 -12 16 -3 33 -10 37 -16 4 -7 8 8 8 33 -1 75 -52 120
-137 120 -40 0 -58 -5 -77 -22z"/>
<path d="M1680 2073 c5 -2 8 -9 4 -14 -3 -5 0 -9 6 -9 15 0 7 23 -8 26 -7 1
-8 0 -2 -3z"/>
<path d="M1732 2047 c-9 -10 -8 -18 2 -32 13 -18 13 -17 11 10 l-4 30 23 -25
c12 -14 33 -34 46 -45 14 -11 7 0 -15 25 -46 53 -49 55 -63 37z"/>
<path d="M1077 2012 c-23 -26 -21 -45 8 -72 13 -12 22 -27 18 -33 -3 -5 -10
-3 -15 4 -8 11 -9 10 -5 -2 3 -9 0 -22 -6 -29 -9 -10 -6 -10 13 0 40 21 41 33
8 67 -30 31 -30 33 -14 58 19 29 16 33 -7 7z"/>
<path d="M1310 2016 c0 -8 4 -18 10 -21 13 -8 54 -97 51 -113 -2 -15 30 -72
41 -72 13 0 10 9 -13 39 -17 23 -19 33 -10 47 8 14 11 15 10 4 -3 -31 2 -40
54 -84 50 -43 137 -90 122 -67 -3 6 -1 11 4 11 6 0 11 4 11 9 0 4 -11 6 -25 4
-14 -3 -38 3 -57 15 -42 26 -106 92 -89 92 8 0 7 6 -5 17 -9 9 -23 31 -30 48
-7 16 -13 24 -14 17 0 -7 5 -22 10 -33 6 -10 8 -19 5 -19 -3 0 -17 24 -30 54
-24 55 -45 79 -45 52z"/>
<path d="M1126 1965 c-11 -8 -15 -15 -9 -15 6 0 16 7 23 15 16 19 11 19 -14 0z"/>
<path d="M2613 1965 c-59 -41 -40 -121 37 -162 60 -32 104 -30 141 6 32 33 36
58 14 101 -31 61 -139 92 -192 55z m152 -37 c19 -9 25 -19 25 -43 0 -45 -23
-60 -91 -60 -88 1 -127 48 -77 95 25 23 100 28 143 8z"/>
<path d="M1440 1913 c0 -5 11 -22 25 -37 14 -15 25 -30 25 -34 0 -4 13 -15 29
-25 33 -19 78 -22 101 -6 11 8 6 9 -18 4 -32 -7 -93 10 -90 24 1 3 -15 24 -35
45 -20 22 -37 35 -37 29z"/>
<path d="M1140 1894 c0 -8 5 -12 10 -9 6 4 8 11 5 16 -9 14 -15 11 -15 -7z"/>
<path d="M1900 1807 c0 -2 14 -16 32 -33 17 -16 27 -23 23 -15 -5 9 -4 12 3 7
7 -4 12 -13 12 -19 0 -18 96 -80 111 -72 7 5 10 4 5 -3 -6 -11 10 -26 29 -27
6 0 27 -8 49 -18 21 -9 42 -17 46 -17 4 0 13 -7 20 -15 7 -8 18 -14 24 -14 6
1 25 -3 41 -10 17 -7 35 -14 40 -15 6 -1 19 -7 30 -14 19 -11 19 -11 1 -12
-34 0 -12 -9 64 -25 165 -35 257 -34 292 1 12 11 -54 42 -77 36 -17 -5 -15 -7
13 -14 17 -5 32 -12 32 -17 0 -33 -196 -14 -273 26 -29 15 -54 30 -57 33 -3 3
-14 7 -25 7 -18 1 -54 16 -197 82 -30 13 -48 28 -48 39 0 10 -3 13 -8 7 -8
-12 -44 -17 -37 -5 3 4 -6 16 -19 25 -15 11 -22 25 -19 34 4 11 0 9 -10 -4
-14 -18 -16 -18 -17 -3 0 15 -35 43 -50 41 -3 -1 -4 3 -2 8 1 5 -5 9 -13 9 -8
0 -15 -1 -15 -3z"/>
<path d="M1308 1758 c9 -9 15 -9 24 0 9 9 7 12 -12 12 -19 0 -21 -3 -12 -12z"/>
<path d="M2585 1754 c-20 -21 -3 -44 32 -44 31 0 42 29 18 46 -24 18 -30 17
-50 -2z m40 -14 c19 -8 19 -9 -2 -9 -12 -1 -25 4 -28 9 -7 12 2 12 30 0z"/>
<path d="M1725 1696 c27 -36 73 -71 82 -63 2 3 -13 17 -34 31 -20 14 -31 26
-24 26 8 0 2 9 -12 20 -37 29 -41 24 -12 -14z"/>
<path d="M2196 1685 c10 -8 28 -14 39 -14 14 0 10 4 -14 14 -42 19 -50 19 -25
0z"/>
<path d="M1696 1601 c-8 -13 60 -65 74 -56 5 3 10 -1 10 -9 0 -10 -6 -13 -17
-9 -15 6 -16 4 -6 -8 15 -19 90 -45 100 -36 9 10 -1 18 -26 20 -11 1 -21 5
-21 10 0 5 10 5 23 2 21 -6 21 -6 -3 11 -14 9 -42 33 -63 53 -27 26 -36 30
-31 16 7 -19 7 -19 -13 -2 -13 11 -23 14 -27 8z m70 -48 c-7 -7 -26 7 -26 19
0 6 6 6 15 -2 9 -7 13 -15 11 -17z"/>
<path d="M2080 1589 c0 -4 16 -11 35 -15 19 -3 35 -10 35 -14 0 -17 161 -90
234 -106 66 -15 126 -26 161 -31 22 -3 45 -10 50 -15 7 -7 0 -9 -21 -5 -23 4
-31 2 -31 -9 0 -18 15 -18 74 2 59 20 59 20 43 39 -8 10 -9 15 -1 15 6 0 11 4
11 9 0 5 -24 1 -52 -9 -58 -20 -102 -17 -132 9 -11 9 -16 10 -12 4 9 -16 -7
-16 -59 -1 -22 6 -44 11 -48 10 -4 -1 -17 3 -28 9 -11 6 -29 12 -40 14 -10 2
-31 11 -46 19 -16 8 -44 22 -63 31 -25 12 -31 18 -21 24 9 6 10 11 2 15 -6 4
-11 2 -11 -5 0 -8 -4 -8 -12 -2 -17 14 -68 22 -68 12z m568 -158 c10 -6 8 -10
-9 -14 -26 -7 -42 0 -34 14 8 11 26 11 43 0z"/>
<path d="M2398 1565 c18 -13 29 -15 45 -7 21 9 21 10 -3 9 -14 0 -34 3 -45 8
-16 6 -16 4 3 -10z"/>
<path d="M2236 1556 c24 -17 104 -38 104 -27 0 4 -21 13 -47 21 -75 22 -79 23
-57 6z"/>
<path d="M2495 1540 c-19 -8 -19 -9 3 -9 12 -1 22 4 22 9 0 6 -1 10 -2 9 -2 0
-12 -4 -23 -9z"/>
<path d="M2338 1495 c15 -11 27 -14 33 -8 6 6 5 10 -3 10 -7 0 -22 4 -33 8
-16 6 -16 4 3 -10z"/>
<path d="M1864 1479 c-4 -6 -21 -8 -43 -5 -26 4 -30 3 -16 -4 31 -13 61 -12
75 5 8 9 9 15 2 15 -6 0 -14 -5 -18 -11z"/>
<path d="M1403 3343 c-35 -2 -63 -8 -63 -13 0 -6 6 -10 14 -10 14 0 20 -27 32
-142 6 -59 5 -68 -10 -68 -9 0 -16 -5 -16 -11 0 -6 7 -8 16 -5 9 3 33 6 55 6
21 0 39 5 39 10 0 6 -8 10 -19 10 -20 0 -31 25 -31 73 0 21 5 27 21 27 12 0
28 -8 35 -17 12 -16 13 -14 12 20 -1 26 -4 35 -12 27 -5 -5 -23 -10 -38 -10
-26 0 -28 3 -28 39 0 32 4 39 23 43 33 6 47 -1 47 -23 0 -30 17 -14 22 21 4
26 1 30 -16 28 -12 -1 -49 -3 -83 -5z"/>
<path d="M1574 3336 c17 -14 18 -24 11 -110 -6 -84 -9 -95 -28 -101 -16 -6 -6
-9 38 -15 67 -9 81 -6 40 10 -19 7 -25 15 -21 26 3 9 6 29 6 45 0 24 4 29 25
29 16 0 25 -6 25 -15 0 -27 18 -16 22 14 4 28 3 28 -35 23 l-40 -5 7 44 c4 24
8 44 9 45 1 1 16 -1 34 -3 24 -4 33 -11 35 -27 3 -21 5 -20 19 11 l16 33 -51
0 c-28 0 -69 3 -91 6 -37 5 -39 4 -21 -10z"/>
<path d="M1155 3276 c-87 -87 -17 -257 90 -216 37 14 69 88 60 141 -15 89 -96
129 -150 75z m83 -28 c47 -52 56 -128 17 -154 -23 -15 -27 -15 -50 0 -35 23
-56 59 -62 104 -4 33 -2 42 18 56 32 22 52 20 77 -6z"/>
<path d="M1798 3262 c-37 -35 -42 -45 -46 -94 -4 -50 -2 -57 23 -76 33 -26 55
-27 95 -7 40 21 38 24 -10 18 -51 -7 -70 8 -70 57 l0 38 39 -10 c26 -7 38 -15
35 -23 -3 -7 -1 -16 5 -20 7 -3 11 2 11 14 0 10 2 25 5 33 4 9 -6 13 -35 13
-21 1 -43 4 -47 8 -13 14 25 62 52 65 30 4 58 -15 51 -34 -10 -25 11 -23 22 1
7 14 17 25 24 25 31 1 -41 29 -75 30 -30 0 -46 -8 -79 -38z"/>
<path d="M984 3211 c-101 -61 -44 -258 69 -237 34 6 67 47 67 83 -1 17 -1 16
-12 -2 -30 -55 -74 -59 -117 -10 -50 58 -53 112 -7 133 18 8 27 7 38 -4 13
-13 14 -10 14 21 -1 40 -9 42 -52 16z"/>
<path d="M2020 3198 c-79 -41 -111 -118 -70 -171 18 -22 29 -27 65 -27 24 0
47 5 50 10 4 6 -8 10 -28 10 -48 0 -71 28 -63 75 4 19 9 35 12 35 21 0 63 -34
66 -52 3 -21 4 -20 20 10 16 31 16 32 -3 32 -17 0 -55 14 -68 26 -8 7 43 54
59 54 29 0 59 -28 53 -52 l-5 -23 21 23 c11 13 25 21 31 17 5 -3 10 -2 10 4 0
9 -78 51 -96 51 -5 0 -30 -10 -54 -22z"/>
<path d="M653 2985 c-38 -16 -53 -42 -53 -90 0 -72 56 -145 112 -145 85 0 116
113 54 194 -33 44 -72 58 -113 41z m84 -68 c46 -43 58 -82 33 -107 -11 -11
-31 -20 -45 -20 -31 0 -88 50 -106 91 -12 30 -11 33 15 56 33 28 57 24 103
-20z"/>
<path d="M458 2783 c-31 -38 -79 -116 -73 -121 3 -4 10 0 15 7 6 11 16 9 52
-12 94 -55 127 -85 122 -109 -5 -22 -4 -22 8 -4 7 10 24 32 37 48 13 16 20 32
16 36 -3 4 -12 -1 -19 -11 -12 -16 -19 -13 -90 33 -42 27 -79 57 -82 65 -8 21
14 45 41 45 32 0 49 -24 41 -61 -5 -25 -3 -29 7 -21 15 12 79 1 102 -18 12
-10 19 -6 39 17 14 15 26 31 26 36 0 10 -14 9 -26 -3 -16 -16 -119 2 -120 20
-2 32 -5 39 -20 54 -21 21 -57 20 -76 -1z"/>
<path d="M336 2585 c-4 -11 -12 -30 -17 -43 -5 -13 -9 -24 -9 -25 0 -2 15 -1
34 1 34 4 131 -22 150 -39 6 -5 0 -9 -16 -9 -14 0 -58 -7 -98 -16 -55 -13 -74
-14 -80 -5 -4 8 -13 -5 -23 -31 -20 -52 -21 -69 -3 -45 13 16 19 16 107 -16
70 -25 94 -38 93 -50 -3 -29 15 -18 24 16 6 17 13 41 17 52 6 19 6 19 -8 3
-19 -24 -39 -23 -122 5 l-69 24 115 22 c112 22 116 24 127 54 13 35 8 48 -11
25 -11 -15 -21 -13 -102 16 -73 26 -90 36 -96 56 -6 23 -7 24 -13 5z"/>
<path d="M240 2258 c0 -18 -3 -43 -6 -55 -4 -14 -2 -23 5 -23 6 0 11 9 11 19
0 16 6 19 33 16 17 -2 55 -7 82 -9 28 -3 64 -8 80 -10 29 -4 30 -3 32 37 2 33
1 38 -8 25 -7 -13 -23 -18 -57 -18 -83 0 -152 12 -152 26 0 7 -4 16 -10 19 -6
4 -10 -7 -10 -27z"/>
<path d="M440 2165 c0 -17 -5 -36 -12 -43 -25 -25 -186 -7 -189 21 -2 16 -16
-42 -17 -68 -1 -20 -1 -20 13 -1 13 17 19 18 71 7 32 -6 72 -11 91 -11 60 0
93 60 58 106 -14 18 -14 17 -15 -11z"/>
<path d="M440 2023 c0 -19 -12 -26 -83 -48 -98 -30 -113 -31 -126 -7 -14 23
-14 2 0 -51 l10 -42 58 3 c32 2 71 2 87 0 27 -3 23 -6 -42 -40 -56 -29 -74
-34 -84 -25 -10 10 -12 8 -6 -6 3 -10 9 -36 12 -58 4 -21 10 -39 14 -39 5 0 6
9 3 20 -5 19 0 20 100 20 90 0 107 -3 116 -17 16 -30 21 -10 8 35 -11 37 -15
40 -27 27 -13 -12 -188 -38 -199 -29 -7 6 163 84 183 84 20 0 20 1 -2 22 -12
12 -32 23 -44 23 -13 1 -53 2 -90 3 -38 1 -68 5 -68 10 0 4 41 18 90 31 89 23
91 23 106 5 14 -17 14 -15 8 26 -7 53 -23 88 -24 53z"/>
<path d="M1695 2770 c3 -5 8 -10 11 -10 2 0 4 5 4 10 0 6 -5 10 -11 10 -5 0
-7 -4 -4 -10z"/>
<path d="M1566 2465 c-9 -26 -7 -32 5 -12 6 10 9 21 6 23 -2 3 -7 -2 -11 -11z"/>
<path d="M1070 2360 c0 -5 5 -10 10 -10 6 0 10 5 10 10 0 6 -4 10 -10 10 -5 0
-10 -4 -10 -10z"/>
<path d="M735 1520 c3 -5 11 -10 17 -10 6 0 28 -16 50 -36 54 -49 60 -36 6 15
-38 36 -90 58 -73 31z"/>
<path d="M616 1484 c-11 -7 -18 -16 -15 -18 2 -2 13 2 23 10 11 7 18 16 15 18
-2 2 -13 -2 -23 -10z"/>
<path d="M654 1471 c-18 -11 -35 -25 -39 -31 -14 -23 1 -17 40 16 45 38 45 43
-1 15z"/>
<path d="M410 1335 c-13 -14 -20 -25 -17 -25 10 0 49 41 45 46 -3 2 -15 -7
-28 -21z"/>
<path d="M431 1309 c-13 -11 -22 -21 -20 -24 3 -2 18 7 34 20 17 13 26 24 20
24 -5 0 -21 -9 -34 -20z"/>
<path d="M330 1270 c0 -5 7 -7 15 -4 8 4 15 8 15 10 0 2 -7 4 -15 4 -8 0 -15
-4 -15 -10z"/>
<path d="M310 1226 c0 -18 54 -76 72 -76 7 0 1 10 -14 23 -14 12 -29 32 -33
45 -7 24 -25 30 -25 8z"/>
<path d="M996 1078 c-23 -12 -51 -18 -68 -16 -38 6 -45 -8 -21 -40 10 -15 25
-43 33 -62 19 -49 29 -58 43 -39 7 8 38 21 70 28 31 7 57 15 57 19 0 3 -11 18
-25 32 -13 14 -30 42 -37 62 l-13 36 -39 -20z m44 -21 c0 -8 -3 -8 -9 2 -6 10
-10 10 -16 1 -4 -7 1 -13 13 -17 13 -3 23 -16 27 -33 4 -20 11 -27 21 -23 8 3
14 0 14 -6 0 -10 -43 -24 -101 -35 -23 -4 -29 1 -45 37 -11 23 -18 45 -16 50
1 5 -2 6 -7 3 -5 -4 -12 -2 -16 4 -4 6 8 10 29 10 19 0 36 -3 39 -7 2 -5 2 -3
1 4 -2 6 9 16 24 21 30 10 42 7 42 -11z"/>
<path d="M983 1000 c6 -24 3 -25 -19 -3 -12 12 -16 13 -13 4 10 -29 37 -36 58
-17 24 21 19 36 -11 36 -15 0 -19 -5 -15 -20z"/>
<path d="M626 1231 c-3 -4 6 -6 19 -3 14 2 25 6 25 8 0 8 -39 4 -44 -5z"/>
<path d="M700 1220 c0 -5 5 -10 11 -10 5 0 7 5 4 10 -3 6 -8 10 -11 10 -2 0
-4 -4 -4 -10z"/>
<path d="M1858 782 c-3 -21 -2 -56 2 -77 5 -32 7 -25 7 38 1 42 0 77 -2 77 -1
0 -5 -17 -7 -38z"/>
<path d="M1362 870 c0 -14 2 -19 5 -12 2 6 2 18 0 25 -3 6 -5 1 -5 -13z"/>
<path d="M1310 455 c0 -18 19 -40 26 -32 4 4 0 15 -9 24 -9 10 -17 13 -17 8z"/>
<path d="M1877 443 c-4 -3 -7 -11 -7 -17 0 -6 4 -6 11 1 6 6 18 9 27 6 10 -4
13 -2 8 5 -8 13 -29 16 -39 5z"/>
<path d="M1350 233 c0 -7 12 -25 28 -41 15 -15 20 -19 11 -7 -9 11 -21 29 -27
40 -6 11 -12 14 -12 8z"/>
<path d="M1830 195 c-12 -19 -29 -39 -38 -45 -9 -5 -12 -10 -6 -10 14 0 74 66
74 80 0 17 -8 11 -30 -25z"/>
<path d="M1654 83 c-9 -15 -14 -16 -27 -5 -11 9 -21 11 -33 4 -16 -9 -16 -10
3 -20 19 -10 67 -13 58 -3 -3 2 2 13 12 23 9 10 12 18 7 18 -5 0 -14 -8 -20
-17z m-29 -21 c-3 -3 -11 0 -18 7 -9 10 -8 11 6 5 10 -3 15 -9 12 -12z"/>
<path d="M1485 1079 c-4 -12 -3 -25 2 -30 6 -6 10 1 11 21 1 35 -4 39 -13 9z"/>
<path d="M1456 1075 c4 -8 8 -15 10 -15 2 0 4 7 4 15 0 8 -4 15 -10 15 -5 0
-7 -7 -4 -15z"/>
<path d="M1520 1079 c0 -5 5 -7 10 -4 6 3 10 8 10 11 0 2 -4 4 -10 4 -5 0 -10
-5 -10 -11z"/>
<path d="M1561 1074 c0 -11 3 -14 6 -6 3 7 2 16 -1 19 -3 4 -6 -2 -5 -13z"/>
<path d="M1617 1070 c3 -11 7 -20 8 -20 1 0 5 9 8 20 3 12 0 20 -8 20 -8 0
-11 -8 -8 -20z"/>
<path d="M1666 1081 c-4 -7 -5 -15 -2 -18 9 -9 19 4 14 18 -4 11 -6 11 -12 0z"/>
<path d="M1747 1077 c-3 -8 -1 -20 4 -28 6 -10 9 -7 9 14 0 29 -5 35 -13 14z"/>
<path d="M1690 1065 c0 -8 4 -15 8 -15 5 0 9 7 9 15 0 8 -4 15 -9 15 -4 0 -8
-7 -8 -15z"/>
<path d="M1721 1064 c0 -11 3 -14 6 -6 3 7 2 16 -1 19 -3 4 -6 -2 -5 -13z"/>
<path d="M1562 938 c-9 -17 -27 -41 -39 -53 -24 -23 -30 -45 -13 -45 5 0 20
-16 32 -35 31 -47 41 -49 77 -14 17 16 34 29 39 29 4 0 13 9 20 21 12 18 9 25
-32 67 -26 26 -46 50 -46 55 0 18 -23 4 -38 -25z m71 -33 c42 -48 41 -67 -4
-91 -16 -8 -29 -19 -29 -24 0 -19 -29 -10 -41 13 -7 12 -21 28 -32 36 -19 13
-18 14 7 38 14 13 29 35 32 48 9 34 23 30 67 -20z"/>
<path d="M1576 922 c-3 -5 1 -9 9 -9 8 0 15 4 15 9 0 4 -4 8 -9 8 -6 0 -12 -4
-15 -8z"/>
<path d="M1581 886 c-16 -19 -6 -36 20 -36 22 0 24 9 6 34 -12 16 -14 16 -26
2z"/>
<path d="M1640 871 c0 -6 4 -13 10 -16 6 -3 7 1 4 9 -7 18 -14 21 -14 7z"/>
<path d="M1530 850 c0 -5 5 -10 11 -10 5 0 7 5 4 10 -3 6 -8 10 -11 10 -2 0
-4 -4 -4 -10z"/>
<path d="M1615 830 c-3 -5 -2 -10 4 -10 5 0 13 5 16 10 3 6 2 10 -4 10 -5 0
-13 -4 -16 -10z"/>
<path d="M1570 820 c0 -5 5 -10 11 -10 5 0 7 5 4 10 -3 6 -8 10 -11 10 -2 0
-4 -4 -4 -10z"/>
<path d="M1507 643 c-4 -3 -7 -13 -7 -22 1 -13 3 -13 11 2 11 19 8 33 -4 20z"/>
<path d="M886 795 c10 -8 24 -14 29 -14 6 0 1 6 -9 14 -11 8 -24 15 -30 15 -5
0 -1 -7 10 -15z"/>
<path d="M1450 526 c0 -12 60 -69 66 -63 8 7 -44 67 -58 67 -4 0 -8 -2 -8 -4z"/>
<path d="M1726 501 c-30 -33 -12 -44 19 -11 20 21 24 30 13 30 -8 0 -23 -9
-32 -19z"/>
<path d="M1520 241 c0 -7 -5 -9 -12 -5 -9 5 -9 2 1 -9 17 -21 30 -22 27 -2 -3
19 -16 32 -16 16z"/>
<path d="M1807 483 c-4 -3 -7 -11 -7 -17 0 -6 5 -5 12 2 6 6 9 14 7 17 -3 3
-9 2 -12 -2z"/>
<path d="M1437 396 c-3 -8 0 -19 7 -25 8 -7 12 -5 13 9 2 24 -13 35 -20 16z"/>
<path d="M1779 286 c-1 -3 -3 -10 -4 -16 -1 -5 -3 -15 -4 -21 0 -5 -6 -7 -13
-3 -7 4 -8 3 -4 -4 10 -16 11 -16 30 12 10 15 12 27 6 31 -6 3 -11 4 -11 1z"/>
</g>
</svg>
